<?xml version="1.0" encoding="UTF-8"?>
<svg version="1.1" xmlns="http://www.w3.org/2000/svg" width="1266" height="457">
<path d="M0 0 C36.96 0 73.92 0 112 0 C112.66 1.32 113.32 2.64 114 4 C115.57098255 5.20148903 115.57098255 5.20148903 117.44921875 6.03515625 C118.13306641 6.36966797 118.81691406 6.70417969 119.52148438 7.04882812 C120.23626953 7.38333984 120.95105469 7.71785156 121.6875 8.0625 C122.38294922 8.40087891 123.07839844 8.73925781 123.79492188 9.08789062 C128.83167968 11.51926671 133.94722796 13.72801165 139.109375 15.87890625 C141.96292491 17.06788538 144.41745477 18.27830318 147 20 C148.60379333 20.44360241 150.20835792 20.88457861 151.81640625 21.3125 C154.4282843 22.13484443 156.86756083 23.21184083 159.375 24.3125 C179.9033746 32.9828694 201.69404401 36.50995181 223.80908203 37.81201172 C225.88615888 37.93437967 227.96273138 38.06574977 230.03857422 38.20751953 C242.95176053 39.08302555 255.71367692 39.01556889 268.625 38.25 C269.92832275 38.17620117 271.23164551 38.10240234 272.57446289 38.02636719 C281.61201328 37.41263896 290.17849095 35.98301906 299 34 C299.81984375 33.81743652 300.6396875 33.63487305 301.484375 33.44677734 C315.72903666 30.16604526 329.092167 25.64464869 342.078125 18.9296875 C350.40333829 14.90245018 357.47305678 15.30544436 366.33837891 17.43725586 C395.05433699 24.31631254 423.96211148 18.79174089 449.41796875 4.35546875 C452 3 452 3 454 3 C454 2.01 454 1.02 454 0 C468.85 0 483.7 0 499 0 C499 0.99 499 1.98 499 3 C499.71285156 3.18175781 500.42570313 3.36351562 501.16015625 3.55078125 C505.47811726 4.68402808 509.54220159 5.79478002 513.625 7.625 C517.12699013 9.05173672 519.95613946 9.46523413 523.69140625 9.69140625 C526 10 526 10 528.74194336 11.00048828 C534.3911245 12.73355292 540.13341681 12.32738981 546 12.3125 C547.85818359 12.33666992 547.85818359 12.33666992 549.75390625 12.36132812 C557.46847566 12.36535032 564.50464276 11.52316533 572.00708008 9.71850586 C580.02168778 7.79445084 580.02168778 7.79445084 584 9 C588.00094796 11.62620005 591.44227443 14.81129384 595 18 C604.95398218 26.15109255 615.80357909 34.56493785 628 39 C628 39.66 628 40.32 628 41 C628.61488281 41.12117188 629.22976563 41.24234375 629.86328125 41.3671875 C630.67152344 41.53476562 631.47976563 41.70234375 632.3125 41.875 C633.51326172 42.11863281 633.51326172 42.11863281 634.73828125 42.3671875 C637 43 637 43 640 45 C642.33010909 45.67784992 644.66359824 46.34416793 647 47 C647.64324219 47.34160156 648.28648437 47.68320313 648.94921875 48.03515625 C651.80974466 49.38096558 654.46461537 49.38763794 657.5859375 49.55859375 C660 50 660 50 662.6640625 51.4921875 C667.15093476 53.52021173 671.12658722 53.56808098 676 53.6875 C677.44934937 53.73656494 677.44934937 53.73656494 678.92797852 53.78662109 C693.39372956 54.22962959 707.84846321 54.16111875 722.3125 53.6875 C723.24892334 53.66510254 724.18534668 53.64270508 725.15014648 53.61962891 C730.4804617 53.40762501 734.8741464 52.5567936 739.87231445 50.71069336 C743.20653906 49.59698965 746.4411982 49.30310313 749.9375 48.9375 C755.02540422 48.67331295 755.02540422 48.67331295 759 46 C761.50004478 45.65591718 763.97204261 45.55800997 766.4921875 45.44140625 C769.03886721 45.20045731 769.03886721 45.20045731 770.7578125 43.58984375 C773.07311228 41.94815906 774.33138934 41.6053535 777.0625 41.06640625 C782.62346019 39.95898464 787.73678712 38.01755087 793 35.9375 C794.00023193 35.54481934 795.00046387 35.15213867 796.03100586 34.74755859 C804.44378947 31.3700902 812.39968854 27.38717657 820.28955078 22.93847656 C821.94570414 22.02979065 823.64274027 21.19688253 825.33984375 20.3671875 C828.06678761 19.13699928 828.06678761 19.13699928 830 17 C830.721875 16.731875 831.44375 16.46375 832.1875 16.1875 C835.27257641 14.88491218 837.62906812 13.20582333 840.30859375 11.2265625 C842.45640847 9.66902481 844.71558408 8.34721965 847 7 C848.051875 6.278125 849.10375 5.55625 850.1875 4.8125 C853 3 853 3 855 3 C855 2.01 855 1.02 855 0 C857.8125 -0.3125 857.8125 -0.3125 861 0 C862.4375 2.0625 862.4375 2.0625 864 5 C869.09786261 11.08788231 875.54502964 15.47615651 882 20 C883.24136719 20.91652344 883.24136719 20.91652344 884.5078125 21.8515625 C890.67068551 26.34986531 897.09396579 29.77655934 904 33 C905.19302734 33.57234375 905.19302734 33.57234375 906.41015625 34.15625 C911.0825212 36.33174267 915.76754729 37.92831407 920.73828125 39.2890625 C923 40 923 40 925.03125 41.0234375 C927.09959187 42.04940073 928.92974903 42.53940235 931.1875 43 C931.97769531 43.165 932.76789063 43.33 933.58203125 43.5 C934.37996094 43.665 935.17789062 43.83 936 44 C937.45871829 44.33164466 938.91705755 44.66496116 940.375 45 C944.76600256 45.98179106 949.18367112 46.77097465 953.6171875 47.53515625 C956 48 956 48 959 49 C960.82298806 49.20438757 962.65100794 49.36534158 964.48046875 49.5 C965.56263672 49.5825 966.64480469 49.665 967.75976562 49.75 C969.45649414 49.87375 969.45649414 49.87375 971.1875 50 C983.77289855 50.93387305 983.77289855 50.93387305 988.05078125 51.53125 C993.36083054 52.16152291 998.65825127 52.32150097 1004 52.5 C1022.60322333 53.12164236 1022.60322333 53.12164236 1026.03125 55.27734375 C1026.5159375 55.82519531 1027.000625 56.37304688 1027.5 56.9375 C1028.35658203 57.88302734 1028.35658203 57.88302734 1029.23046875 58.84765625 C1031.13167377 61.16015948 1032.97354622 63.51273672 1034.8125 65.875 C1045.40841175 79.2721298 1061.72235297 91.49388903 1079.125 93.6875 C1080.07375 93.790625 1081.0225 93.89375 1082 94 C1082.99 94.66 1083.98 95.32 1085 96 C1089.21992152 97.17678096 1093.46065388 97.19207928 1097.8125 97.1875 C1098.87609741 97.18737915 1098.87609741 97.18737915 1099.96118164 97.18725586 C1108.00297539 97.31688569 1108.00297539 97.31688569 1115 94 C1116.98 94 1118.96 94 1121 94 C1121 116.77 1121 139.54 1121 163 C1119.68 163.66 1118.36 164.32 1117 165 C1116.67 165.66 1116.34 166.32 1116 167 C1115.34 167 1114.68 167 1114 167 C1113.5359375 167.928125 1113.5359375 167.928125 1113.0625 168.875 C1112.375 170.25 1111.6875 171.625 1111 173 C1110.34 173 1109.68 173 1109 173 C1108.773125 173.825 1108.54625 174.65 1108.3125 175.5 C1107.01458382 178.9611098 1105.41310924 181.63002577 1103.41894531 184.70800781 C1090.10175256 206.21898606 1085.65691153 233.41123906 1085.625 258.3125 C1085.62314697 259.62992187 1085.62129395 260.94734375 1085.61938477 262.3046875 C1085.69150348 268.45251269 1085.97181388 274.19026591 1087.52294922 280.15014648 C1088.18022639 282.69886147 1088.44614865 285.26332533 1088.75 287.875 C1091.7081872 307.74376917 1100.14846598 333.04974641 1115 347 C1115.66 347.33 1116.32 347.66 1117 348 C1117.33 348.99 1117.66 349.98 1118 351 C1118.99 351.33 1119.98 351.66 1121 352 C1121 354.64 1121 357.28 1121 360 C1115.24554789 360.33849718 1111.92098603 360.19864092 1107 357 C1104.70694577 356.40021535 1102.41855952 355.94530503 1100.0859375 355.52734375 C1098 355 1098 355 1095 353 C1090.64620823 352.61114515 1086.28262415 352.67089977 1081.91357422 352.68432617 C1079.77128396 352.68746878 1077.63039906 352.66408516 1075.48828125 352.63867188 C1074.11198089 352.63639682 1072.73567686 352.63569634 1071.359375 352.63671875 C1070.11639648 352.63373779 1068.87341797 352.63075684 1067.59277344 352.62768555 C1063.42416611 353.05967292 1060.76254403 354.20539121 1057 356 C1054.84765625 356.58984375 1054.84765625 356.58984375 1053.0625 356.9375 C1034.9971425 361.26349557 1017.61043406 378.71281445 1008 394 C1003.4779203 401.37467067 999.86235401 409.27529197 996 417 C985.11 417 974.22 417 963 417 C962.34 415.68 961.68 414.36 961 413 C958.46229997 411.71745356 958.46229997 411.71745356 956 411 C956 410.34 956 409.68 956 409 C953.98177083 408.54427083 951.96354167 408.08854167 949.9453125 407.6328125 C948 407 948 407 946 405 C943.97087478 404.39390377 943.97087478 404.39390377 941.6875 404 C939.19254941 403.52557816 937.08299861 403.03773735 934.76464844 401.98364258 C929.29017829 400.03586439 923.31210834 400.67340091 917.5625 400.6875 C916.25216797 400.67138672 914.94183594 400.65527344 913.59179688 400.63867188 C912.32529297 400.63802734 911.05878906 400.63738281 909.75390625 400.63671875 C908.02636108 400.63224731 908.02636108 400.63224731 906.26391602 400.62768555 C902.59910835 401.04572966 900.20177298 402.21762894 897 404 C894.7265625 404.58984375 894.7265625 404.58984375 892.625 404.9375 C885.68917093 406.34797953 879.61640887 409.75344695 874 414 C873.67 414.99 873.34 415.98 873 417 C858.81 417 844.62 417 830 417 C829.34 415.35 828.68 413.7 828 412 C825.69 411.67 823.38 411.34 821 411 C821 410.34 821 409.68 821 409 C820.25234375 408.87882812 819.5046875 408.75765625 818.734375 408.6328125 C817.74953125 408.46523438 816.7646875 408.29765625 815.75 408.125 C814.28820312 407.88136719 814.28820312 407.88136719 812.796875 407.6328125 C810 407 810 407 808.35375977 405.97924805 C804.82863631 404.51267091 801.30178188 404.69487458 797.54296875 404.69921875 C796.72178055 404.69493362 795.90059235 404.6906485 795.05451965 404.68623352 C793.3188265 404.68049816 791.58310931 404.67998411 789.84741211 404.68432617 C787.20709598 404.68747662 784.56791129 404.66405108 781.92773438 404.63867188 C780.23698057 404.63639767 778.54622377 404.63569595 776.85546875 404.63671875 C776.07294235 404.627509 775.29041595 404.61829926 774.48417664 404.60881042 C769.24395341 404.65248513 765.70646077 405.69562882 761 408 C758.6640625 408.58984375 758.6640625 408.58984375 756.625 408.9375 C750.61458749 410.17463465 744.49925795 411.75111307 741 417 C738.54361861 417.30358036 736.33674981 417.40881119 733.87698364 417.38768005 C733.13489053 417.39306559 732.39279741 417.39845113 731.62821662 417.40399987 C729.12844314 417.41836767 726.62919264 417.41115426 724.12939453 417.40405273 C722.34250459 417.40975177 720.5556183 417.41671421 718.76873779 417.42485046 C713.90505426 417.44285024 709.04155046 417.44160054 704.17784357 417.43590808 C700.12205123 417.43282554 696.06629388 417.43889835 692.01050651 417.44494683 C682.44366115 417.45901332 672.87690503 417.45741361 663.31005859 417.44604492 C653.43182654 417.43456578 643.55386604 417.44863114 633.67566979 417.4754414 C625.20343074 417.49757708 616.73127707 417.50424047 608.25901115 417.49836498 C603.19509056 417.49498858 598.13134401 417.49745548 593.06744766 417.51461601 C588.30512763 417.53004879 583.54321057 417.52617052 578.78090668 417.50731087 C577.03134871 417.50361455 575.28176114 417.50676368 573.53223038 417.51719666 C571.14667939 417.53033789 568.76247592 417.51892153 566.37698364 417.50120544 C565.68184666 417.51081045 564.98670967 417.52041546 564.27050793 417.53031152 C560.88253961 417.47841509 559.30866147 417.26704469 556.70544243 415.01481724 C555.86124843 414.01748271 555.86124843 414.01748271 555 413 C550.01125089 411.61748742 544.77321206 411.81654734 539.625 411.8125 C538.81289063 411.80025391 538.00078125 411.78800781 537.1640625 411.77539062 C531.78026802 411.76244881 527.12496744 412.28978359 522 414 C521.34 414.99 520.68 415.98 520 417 C517.12893677 417.40113831 517.12893677 417.40113831 513.41064453 417.43579102 C512.73402771 417.44586685 512.05741089 417.45594269 511.36029053 417.46632385 C509.11763096 417.49488185 506.8756427 417.50068437 504.6328125 417.50390625 C503.07583334 417.513543 501.51885693 417.52363514 499.96188354 417.53416443 C496.69506534 417.55214608 493.42848531 417.55768351 490.16162109 417.5559082 C485.97561766 417.55560346 481.79114242 417.59653722 477.60550117 417.64822483 C474.38838698 417.68158894 471.1716419 417.68766579 467.95437241 417.68607903 C466.41136283 417.68961973 464.86834377 417.70289324 463.3255043 417.72607613 C461.16529887 417.75549259 459.00840376 417.74684883 456.84814453 417.72875977 C455.00520309 417.73517235 455.00520309 417.73517235 453.12503052 417.74171448 C450 417 450 417 447.7182312 414.11021423 C447.1512149 413.08384354 446.58419861 412.05747284 446 411 C438.93427197 403.47423292 430.9756357 398.0237575 422 393 C421.04480469 392.443125 420.08960938 391.88625 419.10546875 391.3125 C399.9826973 380.84860317 376.97725182 379.80595482 356.21972656 385.33789062 C350.81658839 386.9495614 345.91935158 389.27713565 341 392 C339.95199219 392.57105469 338.90398437 393.14210938 337.82421875 393.73046875 C321.98953117 402.55916035 321.98953117 402.55916035 312 417 C308.56294295 417.14505175 305.12666967 417.23398014 301.6875 417.3125 C300.71103516 417.35439453 299.73457031 417.39628906 298.72851562 417.43945312 C296.06743238 417.4851762 293.61978141 417.47421065 291 417 C289.07421875 414.70703125 289.07421875 414.70703125 288 412 C282.99717775 406.87158388 277.43487331 403.09827233 271 400 C271 399.34 271 398.68 271 398 C270.030625 397.7525 269.06125 397.505 268.0625 397.25 C262.83102071 395.76136768 257.85367056 393.52157485 253.05859375 390.96484375 C245.11244168 387.24055616 235.55491347 386.28796321 226.95703125 384.74609375 C224.25742057 384.25827694 221.60505726 383.66762341 218.93896484 383.02294922 C213.66247809 381.84821975 208.40209268 381.31744755 203.01953125 380.88671875 C201.9809346 380.80242111 200.94233795 380.71812347 199.87226868 380.63127136 C189.2008827 379.83469628 178.55514449 379.73037674 167.85864258 379.79418945 C164.64331293 379.81275514 161.42826903 379.81469589 158.21289062 379.81445312 C156.12499755 379.81936055 154.03710637 379.82518545 151.94921875 379.83203125 C151.00946701 379.83314407 150.06971527 379.8342569 149.10148621 379.83540344 C139.26557096 379.90491734 130.16140737 380.49362609 120.875 383.875 C119.39322917 384.39322917 117.91145833 384.91145833 116.4296875 385.4296875 C115.71135742 385.68588867 114.99302734 385.94208984 114.25292969 386.20605469 C110.51912078 387.52187031 106.75957671 388.76010423 103 390 C103 390.66 103 391.32 103 392 C100.98828125 393.33203125 100.98828125 393.33203125 98.3125 394.8125 C94.25106041 397.1740674 91.16695779 399.49066839 88 403 C84.48098554 406.33422603 84.48098554 406.33422603 82.74609375 407.9609375 C80.34799057 410.63216576 80.34799057 410.63216576 77 417 C64.79 417 52.58 417 40 417 C37.69 411.39 35.38 405.78 33 400 C27.48865122 388.73767859 20.07022902 379.9364323 11.3125 371.0625 C10.77810303 370.51867676 10.24370605 369.97485352 9.69311523 369.41455078 C6.37385078 366.12247239 2.97934852 363.49684613 -1 361 C-1.969375 360.319375 -2.93875 359.63875 -3.9375 358.9375 C-7.22367534 356.85849111 -10.41207445 355.47738111 -14 354 C-14.33 353.67 -14.66 353.34 -15 353 C-17.18074545 352.46382498 -19.37605759 352.03733078 -21.578125 351.59765625 C-24 351 -24 351 -26.23754883 349.98144531 C-31.71174794 348.03656856 -37.68900403 348.67340364 -43.4375 348.6875 C-45.40299805 348.66333008 -45.40299805 348.66333008 -47.40820312 348.63867188 C-48.67470703 348.63802734 -49.94121094 348.63738281 -51.24609375 348.63671875 C-52.97363892 348.63224731 -52.97363892 348.63224731 -54.73608398 348.62768555 C-58.40418814 349.04610569 -60.79654969 350.21273965 -64 352 C-70.07762511 353.8671074 -75.83358574 354.7010798 -82 353 C-84.25 350.125 -84.25 350.125 -86 347 C-87.31558703 345.97676564 -88.64377755 344.96873032 -90 344 C-90 343.34 -90 342.68 -90 342 C-90.53238281 341.75894531 -91.06476563 341.51789063 -91.61328125 341.26953125 C-94.65037198 339.65405746 -97.39247624 337.68067603 -100.1875 335.6875 C-104.66838543 332.51498517 -109.10578538 329.69154348 -114.09765625 327.36328125 C-117.34556468 325.0357247 -119.60276216 321.99755952 -120.39341736 318.02165222 C-120.57008641 315.73662456 -120.63166885 313.47534548 -120.65234375 311.18359375 C-120.70388623 309.44155536 -120.75590577 307.69953102 -120.80834961 305.95751953 C-120.8390303 304.60330902 -120.8390303 304.60330902 -120.87033081 303.22174072 C-121.22895958 288.35616284 -121.9308791 274.15508825 -126.41699219 259.87304688 C-127.23848534 257.23381091 -127.8887616 254.55514614 -128.5625 251.875 C-130.90969335 243.55433144 -133.88967119 235.60784496 -138 228 C-138.42667969 227.18917969 -138.85335937 226.37835938 -139.29296875 225.54296875 C-141.38529286 221.04131104 -141.38529286 221.04131104 -145 218 C-145.11586331 207.13422862 -145.20469999 196.26860426 -145.25906086 185.40234089 C-145.28515186 180.35662831 -145.32054101 175.31133844 -145.37719727 170.26586914 C-145.43153452 165.39642878 -145.46142428 160.52739493 -145.47438622 155.65767479 C-145.48362301 153.80008736 -145.5016606 151.94252212 -145.52865028 150.0851078 C-145.56496414 147.48243816 -145.56994449 144.88144678 -145.56762695 142.27856445 C-145.58560333 141.5110788 -145.60357971 140.74359314 -145.62210083 139.95285034 C-145.58362403 135.95777495 -145.2164058 134.25435129 -142.5912323 131.16886902 C-141.73612564 130.45314224 -140.88101898 129.73741547 -140 129 C-138.62503034 126.97860916 -137.3135097 124.91286598 -136.0625 122.8125 C-135.72186523 122.24732666 -135.38123047 121.68215332 -135.03027344 121.09985352 C-133.42855824 118.43645783 -131.85760573 115.75561624 -130.29296875 113.0703125 C-129.78378906 112.20148438 -129.27460938 111.33265625 -128.75 110.4375 C-128.31171875 109.67308594 -127.8734375 108.90867187 -127.421875 108.12109375 C-122.53472374 100.83064559 -115.83104026 99.36142932 -107.6875 97.5625 C-95.44058969 94.81750286 -83.48005505 89.98670337 -73 83 C-72.01 83 -71.02 83 -70 83 C-70 82.34 -70 81.68 -70 81 C-68.35844231 79.848238 -66.65887603 78.77865539 -64.9375 77.75 C-61.36174723 75.55201795 -58.07069728 73.35715266 -54.9375 70.5625 C-52 68 -52 68 -50 68 C-50 67.34 -50 66.68 -50 66 C-48.49609375 64.484375 -48.49609375 64.484375 -46.4375 62.75 C-45.7053125 62.12480469 -44.973125 61.49960938 -44.21875 60.85546875 C-42.86951604 59.7271481 -41.51636559 58.60346077 -40.15625 57.48828125 C-36.33689482 54.31995252 -33.06196627 50.95460522 -29.86328125 47.16015625 C-28.61371848 45.71150172 -27.31763757 44.30179937 -25.98046875 42.93359375 C-20.89104777 37.66077021 -16.82853299 32.03120681 -12.875 25.875 C-12.39651611 25.14240967 -11.91803223 24.40981934 -11.42504883 23.6550293 C-6.62654757 15.99328875 -3.73978998 8.54809139 0 0 Z " fill="#000000" transform="translate(145,18)"/>
</svg>
